PathFileType	4	(X/Y/Z)	data/BAA/BAA01/Baseline/Walk05.trc
DataRate	CameraRate	NumFrames	NumMarkers	Units	OrigDataRate	OrigDataStartFrame	OrigNumFrames
200.0	200.0	5	15	mm	200.0	590	945
Frame#	Time	RASI			SPL6			LKNE			RHIP			LASI			RKNE			RTOE			LTOE			TAIL			LHIP			LANK			RANK			*12			*13			*14			
		X1	Y1	Z1	X2	Y2	Z2	X3	Y3	Z3	X4	Y4	Z4	X5	Y5	Z5	X6	Y6	Z6	X7	Y7	Z7	X8	Y8	Z8	X9	Y9	Z9	X10	Y10	Z10	X11	Y11	Z11	X12	Y12	Z12	X13	Y13	Z13	X14	Y14	Z14	X15	Y15	Z15	

591	2.95	23.30452537536621	64.08539581298828	22.23037910461426	22.55183601379395	76.93663787841797	3.518867015838623	26.62438011169434	38.89151000976562	-26.82914733886719	5.601375102996826	56.68560409545898	19.4085865020752	24.84735679626465	66.21945953369141	-16.75899696350098	25.76017761230469	32.27492523193359	24.9992790222168	12.95830059051514	6.731910705566406	19.26076316833496	-6.836719036102295	25.04368209838867	-25.24522590637207	-4.479188442230225	59.14286804199219	1.45652174949646	5.860293865203857	59.67947387695312	-15.51728057861328	-6.937276840209961	40.69388961791992	-24.58602714538574	3.127172946929932	17.26064109802246	13.03787136077881	nan	nan	nan	nan	nan	nan	nan	nan	nan	
592	2.955	24.93130493164062	64.21785736083984	22.07162857055664	24.19118309020996	77.00981903076172	3.701993703842163	28.86933708190918	39.62368392944336	-27.32237815856934	7.211091041564941	56.88882064819336	19.1695613861084	26.71636390686035	66.52288818359375	-16.84406661987305	27.10057067871094	32.44219970703125	25.22225379943848	12.86742496490479	6.430270195007324	18.79293823242188	-1.042959213256836	25.44325828552246	-25.33429145812988	-2.752868175506592	59.45498657226562	1.272827625274658	7.538884162902832	59.87808227539062	-15.63155651092529	-4.198431015014648	40.48031234741211	-24.56264114379883	3.782978534698486	17.5109977722168	13.32925891876221	nan	nan	nan	nan	nan	nan	nan	nan	nan	
593	2.96	26.53629493713379	64.39109802246094	21.88225936889648	26.29631805419922	77.13931274414062	3.774826526641846	31.11924743652344	40.20048904418945	-27.7324275970459	8.820867538452148	57.13594818115234	18.86684036254883	28.63102531433105	66.82006072998047	-16.96453666687012	28.45100021362305	32.59249496459961	25.34664154052734	13.03090190887451	6.604434967041016	18.78265571594238	4.689785003662109	25.89929389953613	-25.93750381469727	-0.6548678278923035	59.74104309082031	0.7561284899711609	9.53980827331543	59.97214126586914	-15.78446388244629	0.04733103513717651	41.31674194335938	-26.24118041992188	4.359466075897217	18.02007865905762	13.29176807403564	nan	nan	nan	nan	nan	nan	nan	nan	nan	
594	2.965	28.12794303894043	64.57137298583984	21.67974090576172	27.92566871643066	77.52805328369141	3.62653112411499	33.44816207885742	40.6960563659668	-28.07180595397949	10.41153430938721	57.38767242431641	18.53756523132324	30.57181930541992	67.101318359375	-17.13958930969238	29.7471752166748	32.75930404663086	25.50189781188965	13.18224811553955	6.753418445587158	18.72295951843262	10.21958160400391	25.78090286254883	-25.94185829162598	1.164495587348938	59.84376525878906	0.5686226487159729	11.72048187255859	60.20530319213867	-16.22091293334961	2.454961776733398	38.20356369018555	-25.27296447753906	4.55103063583374	19.24819374084473	13.73800277709961	nan	nan	nan	nan	nan	nan	nan	nan	nan	
595	2.97	29.70593070983887	64.75953674316406	21.47545051574707	29.74631500244141	77.70644378662109	3.623251914978027	35.90221405029297	41.08968353271484	-28.32818412780762	12.02555847167969	57.66942977905273	18.19037055969238	32.52809906005859	67.35282135009766	-17.34171104431152	31.08544158935547	32.92622756958008	25.63921737670898	13.32529544830322	6.890190601348877	18.67472648620605	15.63514518737793	25.49806976318359	-26.03805541992188	2.517981052398682	59.91335296630859	-0.3898240923881531	13.68305587768555	59.86847686767578	-16.1889533996582	5.843710422515869	36.83580780029297	-25.17504692077637	5.287220001220703	18.9239616394043	12.83665561676025	nan	nan	nan	nan	nan	nan	nan	nan	nan	
